<?xml version="1.0" encoding="UTF-8"?>
<svg id="a" data-name="Layer 1" xmlns="http://www.w3.org/2000/svg" viewBox="0 0 160.2 110.86">
  <path d="M159.96,6.85h0c0,3.78-3.06,6.85-6.85,6.85h-11.06c-3.78,0-6.85,3.06-6.85,6.85v35.81c0,3.78-3.06,6.85-6.85,6.85h0c-3.78,0-6.85-3.06-6.85-6.85V20.54c0-3.78-3.06-6.85-6.85-6.85h-11.06c-3.78,0-6.85-3.06-6.85-6.85h0C96.77,3.06,99.83,0,103.61,0h49.5C156.9,0,159.96,3.06,159.96,6.85Z"/>
  <path d="M119.73,56.4v-6.9h-27.25c-3.78,0-6.85-3.07-6.85-6.85v-22.12c0-3.78,3.07-6.85,6.85-6.85h5.11c-1.74-1.62-2.82-3.93-2.82-6.5h0c0-2.96,1.44-5.58,3.67-7.19h-6.57c-10.95,0-19.84,8.88-19.84,19.84v23.52c0,10.95,8.88,19.84,19.84,19.84h31.02c-1.93-1.63-3.15-4.07-3.15-6.79Z"/>
  <g>
    <path d="M70.29,19.15c0-8.4,4.94-15.65,12.07-19-.36-.1-.74-.16-1.13-.16h-7.83c-1.27,0-2.48.56-3.3,1.54l-16.75,20.06c-1.71,2.05-4.87,2.06-6.59,0L29.93,1.53c-.82-.97-2.02-1.53-3.29-1.53h-7.75c-2.37,0-4.29,1.92-4.29,4.29v54.61c0,2.37,1.92,4.29,4.29,4.29h5.02c2.37,0,4.29-1.92,4.29-4.29v-26.27c0-4,4.99-5.83,7.57-2.77,3.76,4.45,8.11,9.61,11.01,13.04,1.72,2.03,4.84,2.03,6.56,0,3.57-4.24,7.24-8.66,10.89-13.03,1.67-2,4.36-1.94,6.05-.55v-10.16Z"/>
    <path d="M71.82,51.93v6.97c0,2.37,1.92,4.29,4.29,4.29h5.1c.39,0,.77-.06,1.13-.16-4.76-2.24-8.54-6.21-10.53-11.11Z"/>
  </g>
  <path d="M56.31,71.78h6.4c.18,0,.34.06.47.19.13.13.19.29.19.47v37.32c0,.18-.06.34-.19.47-.13.13-.29.19-.47.19h-6.46c-.18,0-.34-.06-.47-.19-.13-.13-.19-.28-.19-.47v-24.79c0-.15-.04-.22-.11-.22s-.15.06-.22.17l-4.31,7.62c-.18.3-.33.44-.44.44s-.26-.15-.44-.44l-4.31-7.62c-.07-.11-.15-.17-.22-.17s-.11.07-.11.22v24.79c0,.18-.06.34-.19.47-.13.13-.29.19-.47.19h-6.46c-.18,0-.34-.06-.47-.19-.13-.13-.19-.28-.19-.47v-37.32c0-.18.06-.34.19-.47.13-.13.28-.19.47-.19h6.35c.37,0,.64.15.83.44l4.91,8.78c.11.15.22.15.33,0l4.75-8.78c.15-.29.42-.44.83-.44Z"/>
  <path d="M68.87,107.91c-2.01-1.97-3.01-4.61-3.01-7.92v-17.89c0-3.27,1-5.89,3.01-7.84,2.01-1.95,4.66-2.93,7.98-2.93s6.03.98,8.03,2.93c2.01,1.95,3.01,4.56,3.01,7.84v.61c0,.18-.06.34-.19.47-.13.13-.29.19-.47.19l-6.46.28c-.44,0-.66-.2-.66-.61v-1.44c0-1.07-.3-1.93-.88-2.59-.59-.66-1.38-.99-2.37-.99s-1.73.33-2.32.99c-.59.66-.88,1.53-.88,2.59v19.04c0,1.07.29,1.92.88,2.57.59.64,1.36.97,2.32.97s1.78-.32,2.37-.97c.59-.64.88-1.5.88-2.57v-1.49c0-.18.06-.34.19-.47.13-.13.28-.19.47-.19l6.46.28c.18,0,.34.06.47.19.13.13.19.29.19.47v.55c0,3.31-1.01,5.95-3.04,7.92-2.02,1.97-4.69,2.95-8,2.95s-5.97-.98-7.98-2.95Z"/>
  <path d="M112.25,71.98c.13.13.19.29.19.47v5.35c0,.18-.06.34-.19.47-.13.13-.29.19-.47.19h-6.9c-.18,0-.28.09-.28.28v31.02c0,.18-.06.34-.19.47-.13.13-.29.19-.47.19h-6.46c-.18,0-.34-.06-.47-.19-.13-.13-.19-.28-.19-.47v-31.02c0-.18-.09-.28-.28-.28h-6.62c-.18,0-.34-.06-.47-.19-.13-.13-.19-.28-.19-.47v-5.35c0-.18.06-.34.19-.47.13-.13.28-.19.47-.19h21.86c.18,0,.34.06.47.19Z"/>
  <rect x="0" y="65.95" width="160.2" height="2.64" rx=".96" ry=".96"/>
</svg>