<?xml version="1.0" encoding="UTF-8"?>
<svg id="a" data-name="Layer 1" xmlns="http://www.w3.org/2000/svg" viewBox="0 0 160 41.45">
  <rect x="92.56" y="0" width="1.49" height="41.45" rx=".74" ry=".74"/>
  <g>
    <path d="M112.6,5.81h5.41c.16,0,.29.05.4.16.11.11.16.24.16.4v31.51c0,.16-.05.29-.16.4-.11.11-.24.16-.4.16h-5.45c-.16,0-.29-.05-.4-.16-.11-.11-.16-.24-.16-.4v-20.93c0-.12-.03-.19-.09-.19s-.12.05-.19.14l-3.64,6.43c-.16.25-.28.37-.37.37s-.22-.12-.37-.37l-3.64-6.43c-.06-.09-.12-.14-.19-.14s-.09.06-.09.19v20.93c0,.16-.05.29-.16.4-.11.11-.24.16-.4.16h-5.45c-.16,0-.29-.05-.4-.16-.11-.11-.16-.24-.16-.4V6.37c0-.16.05-.29.16-.4s.24-.16.4-.16h5.36c.31,0,.54.12.7.37l4.15,7.41c.09.12.19.12.28,0l4.01-7.41c.12-.25.36-.37.7-.37Z"/>
    <path d="M123.21,36.31c-1.69-1.66-2.54-3.89-2.54-6.69v-15.1c0-2.77.85-4.97,2.54-6.62,1.69-1.65,3.94-2.47,6.73-2.47s5.09.82,6.78,2.47c1.69,1.65,2.54,3.85,2.54,6.62v.51c0,.16-.05.29-.16.4-.11.11-.24.16-.4.16l-5.45.23c-.37,0-.56-.17-.56-.51v-1.21c0-.9-.25-1.63-.75-2.19-.5-.56-1.17-.84-2-.84s-1.46.28-1.96.84c-.5.56-.75,1.29-.75,2.19v16.08c0,.9.25,1.62.75,2.17.5.54,1.15.82,1.96.82s1.51-.27,2-.82c.5-.54.75-1.27.75-2.17v-1.26c0-.16.05-.29.16-.4s.24-.16.4-.16l5.45.23c.16,0,.29.05.4.16.11.11.16.24.16.4v.47c0,2.8-.86,5.03-2.56,6.69-1.71,1.66-3.96,2.49-6.76,2.49s-5.04-.83-6.73-2.49Z"/>
    <path d="M159.84,5.97c.11.11.16.24.16.4v4.52c0,.16-.05.29-.16.4s-.24.16-.4.16h-5.83c-.16,0-.23.08-.23.23v26.19c0,.16-.05.29-.16.4-.11.11-.24.16-.4.16h-5.45c-.16,0-.29-.05-.4-.16-.11-.11-.16-.24-.16-.4V11.68c0-.16-.08-.23-.23-.23h-5.59c-.16,0-.29-.05-.4-.16-.11-.11-.16-.24-.16-.4v-4.52c0-.16.05-.29.16-.4s.24-.16.4-.16h18.46c.16,0,.29.05.4.16Z"/>
  </g>
  <g>
    <path d="M90.91,5.31h0c0,2.36-1.92,4.28-4.28,4.28h-6.92c-2.36,0-4.28,1.92-4.28,4.28v22.4c0,2.36-1.92,4.28-4.28,4.28h0c-2.36,0-4.28-1.92-4.28-4.28V13.87c0-2.36-1.92-4.28-4.28-4.28h-6.92c-2.36,0-4.28-1.92-4.28-4.28h0c0-2.36,1.92-4.28,4.28-4.28h30.96c2.36,0,4.28,1.92,4.28,4.28Z"/>
    <path d="M65.75,36.3v-4.32h-17.04c-2.36,0-4.28-1.92-4.28-4.28v-13.83c0-2.36,1.92-4.28,4.28-4.28h3.2c-1.09-1.02-1.77-2.46-1.77-4.06h0c0-1.85.9-3.49,2.29-4.5h-4.11c-6.85,0-12.41,5.55-12.41,12.41v14.71c0,6.85,5.55,12.41,12.41,12.41h19.4c-1.21-1.02-1.97-2.54-1.97-4.25Z"/>
    <g>
      <path d="M34.83,13c0-5.25,3.09-9.79,7.55-11.88-.23-.06-.46-.1-.71-.1h-4.9c-.8,0-1.55.35-2.06.96l-10.48,12.55c-1.07,1.28-3.04,1.29-4.12,0L9.59,1.98c-.51-.61-1.26-.96-2.06-.96H2.69C1.2,1.02,0,2.23,0,3.71v34.15c0,1.48,1.2,2.69,2.69,2.69h3.14c1.48,0,2.69-1.2,2.69-2.69v-16.43c0-2.5,3.12-3.65,4.74-1.73,2.35,2.79,5.07,6.01,6.89,8.16,1.07,1.27,3.03,1.27,4.1,0,2.23-2.65,4.53-5.42,6.81-8.15,1.04-1.25,2.73-1.21,3.79-.35v-6.35Z"/>
      <path d="M35.79,33.5v4.36c0,1.48,1.2,2.69,2.69,2.69h3.19c.25,0,.48-.04.71-.1-2.98-1.4-5.34-3.89-6.59-6.95Z"/>
    </g>
  </g>
</svg>