<?xml version="1.0" encoding="UTF-8"?>
<svg id="a" data-name="Layer 1" xmlns="http://www.w3.org/2000/svg" viewBox="0 0 159.97 69.55">
  <path fill="gray" d="M159.97,7.53h0c0,4.16-3.37,7.53-7.53,7.53h-12.17c-4.16,0-7.53,3.37-7.53,7.53v39.41c0,4.16-3.37,7.53-7.53,7.53h0c-4.16,0-7.53-3.37-7.53-7.53V22.6c0-4.16-3.37-7.53-7.53-7.53h-12.17c-4.16,0-7.53-3.37-7.53-7.53h0C90.43,3.37,93.8,0,97.96,0h54.48C156.6,0,159.97,3.37,159.97,7.53Z"/>
  <path fill="#ef3a37" d="M115.7,62.07v-7.59h-29.99c-4.16,0-7.53-3.37-7.53-7.53v-24.34c0-4.16,3.37-7.53,7.53-7.53h5.63c-1.91-1.79-3.11-4.33-3.11-7.15h0c0-3.26,1.59-6.14,4.03-7.92h-7.23c-12.06,0-21.83,9.77-21.83,21.83v25.89c0,12.06,9.77,21.83,21.83,21.83h34.14c-2.12-1.8-3.47-4.48-3.47-7.47Z"/>
  <g>
    <path fill="gray" d="M61.28,21.08c0-9.25,5.44-17.22,13.28-20.91-.4-.11-.82-.17-1.25-.17h-8.62c-1.4,0-2.73.62-3.63,1.7l-18.44,22.08c-1.89,2.26-5.36,2.26-7.25,0L16.87,1.69c-.9-1.07-2.22-1.69-3.62-1.69H4.73C2.12,0,0,2.12,0,4.73v60.1c0,2.61,2.12,4.73,4.73,4.73h5.52c2.61,0,4.73-2.12,4.73-4.73v-28.91c0-4.4,5.49-6.42,8.33-3.05,4.14,4.9,8.92,10.57,12.12,14.35,1.89,2.24,5.33,2.24,7.22,0,3.93-4.66,7.97-9.53,11.98-14.34,1.83-2.2,4.8-2.13,6.66-.61v-11.18Z"/>
    <path fill="gray" d="M62.98,57.15v7.67c0,2.61,2.12,4.73,4.73,4.73h5.62c.43,0,.85-.06,1.25-.17-5.24-2.46-9.4-6.84-11.59-12.23Z"/>
  </g>
</svg>