<?xml version="1.0" encoding="UTF-8"?>
<svg id="Layer_1" xmlns="http://www.w3.org/2000/svg" version="1.1" viewBox="0 0 105.04 90.51">
  <!-- Generator: Adobe Illustrator 29.1.0, SVG Export Plug-In . SVG Version: 2.1.0 Build 142)  -->
  <defs>
    <style>
      .st0 {
        fill: #333;
      }

      .st1 {
        fill: #fff;
      }
    </style>
  </defs>
  <circle class="st0" cx="57.19" cy="45.77" r="42.52"/>
  <path class="st1" d="M-555.33,388.99c34.51-2.39,58.06,35.17,40.53,65.18-15.78,27.01-54.2,29.11-72.69,3.8-20.14-27.57-1.72-66.63,32.17-68.97ZM-537.79,404.39c-7.12-.08-14.53-2.36-19.61,4.04-1.08,1.36-3.03,5.35-3.03,7v10.89l-.43.43h-9.6v11.18h10.03v27.23h11.75v-27.23h8.89l1.72-11.18h-10.61v-9.03c0-1.65,3.17-4.16,4.73-4.16h6.16v-9.17Z"/>
  <path class="st1" d="M-625.89,251.64c32.58-2.61,56.57,30.32,43.59,60.5-13.35,31.05-55.62,35.51-75.3,8.01-19.51-27.27-1.57-65.85,31.71-68.51ZM-601.04,274.64c-3.88-.12-14.89,4.94-18.97,6.67-9.13,3.89-19.81,8.28-28.57,12.7-.78.39-3,1.6-2.73,2.62.39.72,1.08,1.06,1.78,1.4,4.49,2.18,10.44,4.26,15.08,1.79,6.72-3.58,13.3-9.77,20-13.54,2.74-1.54,5.48-2.04,2.53,1.67-3.76,4.72-10.62,9.24-14.77,13.89-1.57,1.76-2.02,2.91-.14,4.73,5.08,2.93,9.95,7.72,14.96,10.56,3.49,1.98,6.61,1.84,7.75-2.46,1.48-10.83,4.02-21.79,5.2-32.64.26-2.4,1.45-7.29-2.11-7.4Z"/>
  <path class="st1" d="M-765.83,193.75c32.56-2.25,55.84,31.31,42.53,61.17-13.99,31.39-57.66,34.56-76.25,5.63-17.88-27.83.94-64.53,33.71-66.79ZM-737.11,223.77c-6.53.64-11.73-4.47-13.11-10.54-.23-1,.2-2.16-.79-2.94h-8.6l-.43.43v38.7c0,6.96-10.73,10.19-15.03,3.85s2.05-14.53,9.3-12.31v-9.75c-14.82-2.2-25.5,13.73-17.72,26.75,7.16,11.98,25.7,10.78,31.43-1.99,2.73-6.08,1.85-18.25,1.78-25.2,0-.4-.05-.79-.3-1.13l.56-.29c3.63,2.83,8.28,4.49,12.9,3.87v-9.46Z"/>
  <path class="st1" d="M-878.74,221.51c34.16-2.34,57.69,33.74,41.39,64.03-15.51,28.82-56.61,30.49-74.59,3.11s.43-64.9,33.2-67.14ZM-896.24,239.55c-6.68,1.16-5.86,13.07,2.73,11.62,6.91-1.17,5.83-13.1-2.73-11.62ZM-851.45,289.07v-24.22c0-.34-.78-2.25-1-2.73-2.7-5.84-8.46-6.88-14.34-6.3-3.17.31-5.4,2.22-7.6,4.3v-4.01h-9.75v32.97h9.75v-19.06c0-.18.99-2.23,1.19-2.53,2.35-3.5,8.37-3.91,10.8-.29.21.31,1.19,2.36,1.19,2.53v19.35h9.75ZM-889.86,256.11h-9.75v32.97h9.75v-32.97Z"/>
  <path class="st1" d="M-650.72-50.82c35.45-2.39,58.63,36.72,39.56,66.8-16.31,25.74-54.07,26.71-71.85,2.01-19.9-27.65-1.55-66.53,32.28-68.81ZM-647.51-19.52c-.18,1.36.13,3.04,0,4.44-1.85-.29-3.59-.34-5.45-.71-5.46-1.11-11.21-4.78-15.2-8.6-1.71-1.63-2.06-3.89-3.23.19-1.41,4.89.6,9.32,4.68,12.13-2.01.68-3.41-.37-5.16-1,.34,4.95,3.34,9.48,8.31,10.61.08.38-.3.34-.57.42-1.46.47-2.53.16-4.01.15.83,2.7,3.04,5.04,5.43,6.46l4.31,1.42c-4.03,3.73-9.9,4.49-15.19,4.45,1.52,1.32,3.92,2.23,5.87,2.87,21.71,7.18,43.78-8.2,42.62-31.35,2.17-1.4,3.89-3.03,5.11-5.35l-5.45,1.43c1.59-1.86,3.61-3.52,4.3-6.02-1.24.46-5.63,3.02-6.69,2.81-.36-.07-2.36-1.9-3.14-2.29-6.39-3.18-15.55.6-16.53,7.93Z"/>
  <g>
    <path class="st1" d="M-798.62,481.7c34.78-2.44,58.34,34.84,40.81,65.18-15.85,27.44-55.53,28.95-73.38,2.76-18.83-27.64-.69-65.61,32.57-67.94ZM-802.35,506.06c-3.91.14-13.03.22-16.09,2.26-2.5,1.66-3.02,4.81-3.34,7.55-.58,4.96-.8,18.67,1.09,22.98,1.04,2.37,3.03,3.45,5.49,3.97,8.42,1.79,25.49,1.48,34.27.7,3.4-.3,8.37-.54,10.42-3.63,2.7-4.06,2.24-20.33,1.45-25.43-.98-6.31-3.98-7.27-9.86-7.91-7.29-.81-16.05-.75-23.42-.49Z"/>
    <path class="st1" d="M-800.57,517.16l13.48,7.6-13.08,8.14-.65-.41c0-.11.25-.21.25-.29v-15.05Z"/>
  </g>
  <g>
    <path class="st1" d="M-578.8,114.27c31.66-2.25,55.06,28.95,43.84,58.75-12.11,32.16-55.75,37.96-75.84,10.06-19.79-27.48-1.71-66.42,32-68.81ZM-601.67,184.99l14.18-2.31c26.9,12.07,52.21-20.43,32.82-43.12-18.32-21.44-54.01-4.03-47.72,24.22.42,1.89,2.38,5.84,2.46,7.03.21,3.28-1.44,9.02-1.74,12.61-.04.52,0,1.05,0,1.57Z"/>
    <path class="st1" d="M-596.22,179.25l1.3-9.04c-11.63-18.89,6.75-42.1,27.8-33.96,24.25,9.38,16.38,46.93-11.72,44.12-2.67-.27-6.42-2.49-8.06-2.56-1.56-.07-8.54,1.98-9.31,1.45ZM-584.54,144.63c-2.29.45-4.5,4.15-4.54,6.4-.13,6.93,8.3,15.67,14.25,18.45,2.02.95,5.65,2.36,7.79,1.85,1.69-.4,5.28-3.84,4.49-5.53-.19-.41-3.46-3.03-3.94-3.23-2.9-1.18-3.67,3.52-6.24,2.81-.9-.25-3.49-2.19-4.3-2.88-2.52-2.15-4.64-4.89-5.73-8.04,0-.43,1.58-1.43,1.88-2.41.54-1.81-1.23-7.89-3.67-7.41Z"/>
  </g>
  <g>
    <path class="st1" d="M54.61,2.24C89.36-.1,112.59,37.9,94.75,67.89c-15.68,26.35-53.85,28.48-72.13,3.73C2.09,43.86,20.31,4.55,54.61,2.24ZM42.85,18c-6.9.88-12.58,6.53-13.13,13.53-.73,9.21.56,19.36.01,28.67.91,6.64,6.57,12.44,13.33,13.04,9.13.81,19.4-.59,28.66,0,8.7-1.29,13.12-7.39,13.62-15.91.41-7.06.5-17.35,0-24.36-.53-7.48-5.59-14.2-13.36-15.02-9.14-.96-19.83.58-29.12.04Z"/>
    <path class="st1" d="M43.14,22.87c8.69-1.18,19.64.71,28.57-.05,4.28.91,7.7,4.09,8.48,8.43-.73,9.11.97,19.74,0,28.67-.45,4.15-4.66,8.05-8.75,8.45-8.86.88-19.09-.65-28.09,0-4.56-.79-8.02-4.18-8.74-8.75.72-8.89-.99-19.36.03-28.06.5-4.25,4.25-8.12,8.5-8.7ZM71.21,27.73c-2.84.65-2.94,5.75.54,6.23,5.12.71,5.06-7.51-.54-6.23ZM55.18,30.62c-7.7.93-13.54,8.76-12.8,16.37,1.16,11.99,15.28,18.05,24.62,10.36,11.93-9.82,3.53-28.58-11.82-26.73Z"/>
    <path class="st1" d="M56.04,35.77c13.22-1.78,15.29,18.24,3.05,19.67-14.02,1.64-15.42-18.01-3.05-19.67Z"/>
  </g>
  <g>
    <path class="st1" d="M-754.7,75.39c34.46-2.14,57.53,35.08,40.39,65.15-15.86,27.82-55.99,29.23-73.84,2.65-18.77-27.97.02-65.72,33.45-67.79ZM-726.46,92.43h-4.87l-17.64,18.96-14.48-18.96h-16.46l21.55,29.1-21.81,23.83h4.61l19.49-20.8,15.54,20.8h16.72l-22.89-30.72,20.26-22.21Z"/>
    <path d="M-726.46,92.43l-20.26,22.21,22.89,30.72h-16.72l-15.54-20.8-19.49,20.8h-4.61l21.81-23.83-21.55-29.1h16.46l14.48,18.96,17.64-18.96h4.87ZM-764.91,96.12h-7.9l34.1,45.56h7.51c-10.97-15.38-22.8-30.14-33.71-45.56Z"/>
    <path class="st1" d="M-764.91,96.12c10.91,15.42,22.73,30.18,33.71,45.56h-7.51l-34.1-45.56h7.9Z"/>
  </g>
</svg>