<?xml version="1.0" encoding="UTF-8"?>
<svg id="Layer_1" xmlns="http://www.w3.org/2000/svg" version="1.1" viewBox="0 0 1280 1024">
  <!-- Generator: Adobe Illustrator 29.2.1, SVG Export Plug-In . SVG Version: 2.1.0 Build 116)  -->
  <path d="M1233.87,309.76h0c0,30.89-25.04,55.94-55.94,55.94h-90.36c-30.89,0-55.94,25.04-55.94,55.94v292.6c0,30.89-25.04,55.94-55.94,55.94h0c-30.89,0-55.94-25.04-55.94-55.94v-292.6c0-30.89-25.04-55.94-55.94-55.94h-90.37c-30.89,0-55.94-25.04-55.94-55.94h0c0-30.89,25.04-55.94,55.94-55.94h404.48c30.89,0,55.94,25.04,55.94,55.94Z"/>
  <path fill="#ef3a37" d="M905.18,714.68v-56.38h-222.69c-30.89,0-55.94-25.04-55.94-55.94v-180.72c0-30.89,25.04-55.94,55.94-55.94h41.78c-14.18-13.27-23.06-32.14-23.06-53.09h0c0-24.17,11.81-45.57,29.96-58.79h-53.69c-89.51,0-162.08,72.56-162.08,162.08v192.2c0,89.51,72.56,162.08,162.08,162.08h253.47c-15.75-13.33-25.76-33.24-25.76-55.49Z"/>
  <g>
    <path d="M501.14,410.34c0-68.65,40.36-127.85,98.63-155.23-2.96-.81-6.05-1.28-9.27-1.28h-63.97c-10.4,0-20.26,4.61-26.93,12.6l-136.88,163.91c-14.01,16.77-39.77,16.8-53.81.05l-137.53-164.02c-6.67-7.95-16.51-12.54-26.88-12.54h-63.29c-19.38,0-35.08,15.71-35.08,35.08v446.18c0,19.38,15.71,35.08,35.08,35.08h40.99c19.38,0,35.08-15.71,35.08-35.08v-214.63c0-32.7,40.77-47.65,61.87-22.66,30.73,36.4,66.25,78.49,89.96,106.57,14.03,16.62,39.58,16.61,53.59-.02,29.16-34.62,59.2-70.76,88.98-106.49,13.62-16.34,35.65-15.83,49.46-4.51v-83.02Z"/>
    <path d="M513.71,678.11v56.98c0,19.38,15.71,35.08,35.08,35.08h41.71c3.21,0,6.31-.47,9.27-1.28-38.92-18.29-69.81-50.77-86.06-90.79Z"/>
  </g>
</svg>